<svg width="19" height="20" viewBox="0 0 19 20" fill="none" xmlns="http://www.w3.org/2000/svg">
<path d="M14.3842 0C12.685 0 11.3073 1.37923 11.3073 3.07692C11.3073 5.12692 13.9996 7.92769 13.9996 10.7454H14.7689C14.7696 7.92769 17.4612 5.20769 17.4612 3.07692C17.4612 1.37923 16.0835 0 14.3842 0ZM14.3842 1.49077C14.5926 1.49087 14.799 1.53202 14.9915 1.61186C15.184 1.6917 15.3589 1.80868 15.5061 1.95611C15.6534 2.10354 15.7702 2.27854 15.8499 2.47111C15.9295 2.66369 15.9705 2.87006 15.9704 3.07846C15.9703 3.28686 15.9291 3.4932 15.8493 3.68569C15.7695 3.87819 15.6525 4.05307 15.5051 4.20036C15.3576 4.34765 15.1826 4.46446 14.99 4.54411C14.7975 4.62377 14.5911 4.66472 14.3827 4.66462C13.9617 4.66441 13.5581 4.49698 13.2605 4.19916C12.963 3.90134 12.796 3.49752 12.7962 3.07654C12.7964 2.65556 12.9638 2.2519 13.2616 1.95437C13.5594 1.65683 13.9633 1.4898 14.3842 1.49V1.49077ZM9.76886 1.53846C4.67885 1.53846 0.538086 5.67923 0.538086 10.7692C0.538086 15.8592 4.67885 20 9.76886 20C14.8589 20 18.9996 15.8592 18.9996 10.7692C18.9996 9.22308 18.6165 7.77231 17.9419 6.49C17.8396 6.69308 17.7365 6.88615 17.6296 7.09154C17.4273 7.48231 17.2142 7.87692 17.0281 8.26923C17.2204 8.81923 17.3527 9.40077 17.4127 10H16.4035C16.3481 10.2577 16.3073 10.5 16.3073 10.7454V11.5385H17.4135C17.3091 12.6229 16.9728 13.6723 16.4273 14.6154H14.1689C14.3381 13.8938 14.4358 13.0962 14.505 12.2838H12.9896C12.9179 13.0709 12.7816 13.8507 12.5819 14.6154H6.95578C6.69581 13.6086 6.54266 12.5773 6.49886 11.5385H12.4604V10.7454C12.4544 10.4942 12.4222 10.2444 12.3642 10H6.49962C6.54343 8.96116 6.69658 7.92982 6.95655 6.92308H11.0673C10.8005 6.41923 10.5516 5.90609 10.3212 5.38462H7.48501C8.12116 3.93308 8.96193 3.07692 9.76886 3.07692C9.76886 2.54231 9.86501 2.04 10.0335 1.56231C9.94501 1.55923 9.85809 1.53846 9.76886 1.53846ZM6.59578 3.77385C6.28944 4.28547 6.03189 4.82476 5.82655 5.38462H4.28809C4.95162 4.71023 5.73396 4.16415 6.59578 3.77385ZM3.11039 6.92308H5.36886C5.1362 7.93358 4.99944 8.96379 4.96039 10H2.12424C2.22826 8.91546 2.5646 7.86603 3.11039 6.92308ZM2.12424 11.5385H4.96116C5.00655 12.6346 5.14809 13.6692 5.36962 14.6154H3.11039C2.56526 13.6721 2.22897 12.6229 2.12424 11.5385ZM4.28809 16.1538H5.82655C6.04809 16.7508 6.30732 17.2869 6.59578 17.7646C5.73396 17.3743 4.95162 16.8282 4.28809 16.1538ZM7.48501 16.1538H12.0527C11.4165 17.6054 10.5758 18.4615 9.76886 18.4615C8.96193 18.4615 8.12039 17.6054 7.48501 16.1538ZM13.7112 16.1538H15.2496C14.5861 16.8282 13.8038 17.3743 12.9419 17.7646C13.2304 17.2877 13.4896 16.7515 13.7112 16.1538Z" fill="#EAEAEA"/>
</svg>
