<svg width="13" height="12" viewBox="0 0 13 12" fill="none" xmlns="http://www.w3.org/2000/svg">
<path d="M11.936 5.04136L11.9361 5.04152C11.9934 4.99885 12.0358 4.93933 12.0576 4.87129C12.0793 4.80326 12.0792 4.73013 12.0573 4.66216C12.0354 4.59419 11.9927 4.53478 11.9353 4.49227C11.878 4.44975 11.8087 4.42627 11.7373 4.4251L11.7266 4.42493L11.7266 4.42481L8.31262 4.29584L8.30483 4.29554L8.29706 4.29501C8.18408 4.28721 8.07576 4.24691 7.98515 4.17895C7.89466 4.11108 7.82571 4.01853 7.78656 3.91243L7.78673 3.9129L8.25563 3.7393L7.78641 3.91203L11.936 5.04136ZM11.936 5.04136L11.9249 5.05011L11.936 5.04136ZM9.45211 11.4379L9.452 11.4381C9.50862 11.4784 9.57638 11.5 9.64587 11.5C9.71498 11.5 9.78238 11.4786 9.83882 11.4387C9.89455 11.3985 9.93653 11.342 9.95901 11.277C9.98161 11.2116 9.98341 11.1409 9.96415 11.0744L9.96332 11.0716L9.96332 11.0716L9.0345 7.79607C9.00164 7.68253 9.00401 7.5616 9.04144 7.44933C9.07818 7.33911 9.14696 7.24245 9.23886 7.17165M9.45211 11.4379L9.23886 7.17165M9.45211 11.4379L9.4406 11.4302L9.45211 11.4379ZM9.23886 7.17165L9.23543 7.17436L9.54535 7.56673L9.24815 7.16464C9.24503 7.16695 9.24193 7.16928 9.23886 7.17165ZM6.2376 9.94892L5.95922 9.53358L5.9576 9.53466C5.95623 9.53559 5.95487 9.53652 5.95351 9.53746L6.2376 9.94892ZM6.61242 9.53466L6.61081 9.53358L6.33243 9.94892L6.61652 9.53746C6.61515 9.53652 6.61379 9.53559 6.61242 9.53466Z" fill="#EFD26B" stroke="#EFD26B"/>
</svg>
