<svg width="131" height="42" viewBox="0 0 131 42" fill="none" xmlns="http://www.w3.org/2000/svg">
<path fill-rule="evenodd" clip-rule="evenodd" d="M2.5 14.25V0.75L21 10.25L2 22.25L6.5 16.25L2.5 14.25ZM1 27.25L22 14.75V29.25L1 41.25V27.25ZM43 7.76312C40.3333 7.59645 35.4 8.95 35 15.75V33.7499L38.5 33.763V23.763C38.6667 24.763 40 26.763 44 26.763C48 26.763 50.1851 24.4665 51 21.7501C51.8149 19.0337 51.5568 15.5342 51 12.7501C50.4432 9.96599 48.2 7.76312 43 7.76312ZM43.5 22.7501C45.7091 22.7501 47.5 20.2876 47.5 17.2501C47.5 14.2125 45.7091 11.7501 43.5 11.7501C41.2909 11.7501 39.5 14.2125 39.5 17.2501C39.5 20.2876 41.2909 22.7501 43.5 22.7501ZM86 15.75C86.4 8.95 91.3333 7.59645 94 7.76312C99.2 7.76312 101.443 9.96599 102 12.7501C102.557 15.5342 102.815 19.0337 102 21.7501C101.185 24.4665 99 26.763 95 26.763C91 26.763 89.6667 24.763 89.5 23.763V33.763L86 33.7499V15.75ZM98.5 17.2501C98.5 20.2876 96.7091 22.7501 94.5 22.7501C92.2909 22.7501 90.5 20.2876 90.5 17.2501C90.5 14.2125 92.2909 11.7501 94.5 11.7501C96.7091 11.7501 98.5 14.2125 98.5 17.2501ZM64.9558 7.98172L64.9561 11.9817C64.9561 11.9817 59.0708 11.2906 59.0447 13.6121C58.9564 21.4822 59.0447 26.6121 59.0447 26.6121H54.0447L54.0159 18.0054C54.0159 18.0054 53.7894 13.5273 55.0458 11.1133C57.4561 6.48197 64.9558 7.98172 64.9558 7.98172ZM83 13.75L83 18.75H71C71 18.75 71.1268 20.8768 72 21.75C72.6175 22.3675 73.144 22.5775 74 22.75C75.1643 22.9846 77.0797 23.0008 78 22.25C78.7279 21.6562 79 20.75 79 20.75H83C83 20.75 82.5323 23.2122 80.5 24.75C78.5704 26.2102 75.0825 26.25 74.6655 26.25C69.4188 26.25 66 22.4967 66 17.25C66 12.0033 69.4188 7.75 74.6655 7.75C78.5 7.75 82 9.25 83 13.75ZM71 14.75C71 12.5409 72.7909 10.75 75 10.75C77.2091 10.75 79 12.5409 79 14.75V15.75H71V14.75ZM105 7.75C105 4.98858 107.239 2.75 110 2.75V26.75H105V7.75ZM112 7.75H117C117 7.75 119.5 20.75 121 20.75C122.279 20.75 126 7.75 126 7.75H130C127.833 15.9167 122.6 32.35 119 32.75H114.5V29.25H117.5C118.167 29.25 119.4 28.45 119 25.25L112 7.75Z" fill="#EAEAEA"/>
<path d="M2.5 0.75L2.7284 0.305216C2.5734 0.22562 2.38814 0.232459 2.23942 0.323268C2.09071 0.414076 2 0.575754 2 0.75L2.5 0.75ZM2.5 14.25H2C2 14.4394 2.107 14.6125 2.27639 14.6972L2.5 14.25ZM21 10.25L21.267 10.6727C21.4187 10.5769 21.5075 10.4071 21.4995 10.2278C21.4915 10.0485 21.3881 9.8872 21.2284 9.80522L21 10.25ZM2 22.25L1.6 21.95C1.45526 22.143 1.46895 22.4118 1.63256 22.5891C1.79617 22.7664 2.06303 22.8016 2.267 22.6727L2 22.25ZM6.5 16.25L6.9 16.55C6.98896 16.4314 7.02069 16.2794 6.98662 16.1351C6.95256 15.9908 6.85622 15.8691 6.72361 15.8028L6.5 16.25ZM22 14.75H22.5C22.5 14.5702 22.4034 14.4042 22.2471 14.3153C22.0908 14.2265 21.8988 14.2284 21.7443 14.3204L22 14.75ZM1 27.25L0.744258 26.8204C0.592802 26.9105 0.5 27.0737 0.5 27.25H1ZM22 29.25L22.2481 29.6841C22.4039 29.5951 22.5 29.4294 22.5 29.25H22ZM1 41.25H0.5C0.5 41.4282 0.594879 41.593 0.749037 41.6825C0.903194 41.7719 1.09332 41.7726 1.24807 41.6841L1 41.25ZM35 15.75L34.5009 15.7206C34.5003 15.7304 34.5 15.7402 34.5 15.75H35ZM43 7.76312L42.9688 8.26214C42.9792 8.26279 42.9896 8.26312 43 8.26312V7.76312ZM35 33.7499H34.5C34.5 34.0253 34.7227 34.2489 34.9981 34.2499L35 33.7499ZM38.5 33.763L38.4981 34.263C38.6311 34.2635 38.7587 34.2111 38.8529 34.1173C38.9471 34.0234 39 33.896 39 33.763H38.5ZM38.5 23.763L38.9932 23.6808C38.9504 23.4242 38.718 23.2433 38.4588 23.2647C38.1995 23.2862 38 23.5029 38 23.763H38.5ZM51 21.7501L50.5211 21.6064V21.6064L51 21.7501ZM94 7.76312L93.9688 8.26214C93.9792 8.26279 93.9896 8.26312 94 8.26312V7.76312ZM86 15.75L85.5009 15.7206C85.5003 15.7304 85.5 15.7402 85.5 15.75H86ZM102 21.7501L101.521 21.6064V21.6064L102 21.7501ZM89.5 23.763L89.9932 23.6808C89.9504 23.4242 89.718 23.2433 89.4588 23.2647C89.1995 23.2862 89 23.5029 89 23.763H89.5ZM89.5 33.763L89.4981 34.263C89.6311 34.2635 89.7587 34.2111 89.8529 34.1173C89.9471 34.0234 90 33.896 90 33.763H89.5ZM86 33.7499H85.5C85.5 34.0253 85.7227 34.2489 85.9981 34.2499L86 33.7499ZM64.9561 11.9817L64.8977 12.4783C65.0395 12.4949 65.1817 12.4502 65.2884 12.3553C65.395 12.2604 65.4561 12.1244 65.4561 11.9817L64.9561 11.9817ZM64.9558 7.98172L65.4558 7.9817C65.4558 7.74336 65.2876 7.53817 65.0539 7.49143L64.9558 7.98172ZM59.0447 13.6121L59.5447 13.6177V13.6177L59.0447 13.6121ZM59.0447 26.6121V27.1121C59.1788 27.1121 59.3073 27.0582 59.4013 26.9626C59.4953 26.8669 59.547 26.7376 59.5446 26.6035L59.0447 26.6121ZM54.0447 26.6121L53.5447 26.6138C53.5456 26.8892 53.7692 27.1121 54.0447 27.1121V26.6121ZM54.0159 18.0054L54.5159 18.0037C54.5159 17.9958 54.5157 17.988 54.5153 17.9801L54.0159 18.0054ZM55.0458 11.1133L54.6022 10.8824L55.0458 11.1133ZM83 18.75V19.25C83.1326 19.25 83.2598 19.1973 83.3536 19.1036C83.4473 19.0098 83.5 18.8826 83.5 18.75L83 18.75ZM83 13.75L83.5 13.75C83.5 13.7135 83.496 13.6771 83.4881 13.6415L83 13.75ZM71 18.75V18.25C70.8622 18.25 70.7306 18.3068 70.6361 18.4071C70.5416 18.5074 70.4927 18.6422 70.5009 18.7797L71 18.75ZM72 21.75L72.3536 21.3964V21.3964L72 21.75ZM74 22.75L73.9012 23.2401L74 22.75ZM78 22.25L78.3161 22.6374L78 22.25ZM79 20.75V20.25C78.7792 20.25 78.5846 20.3948 78.5211 20.6062L79 20.75ZM83 20.75L83.4912 20.8433C83.519 20.697 83.4801 20.5459 83.3851 20.4311C83.2901 20.3164 83.1489 20.25 83 20.25V20.75ZM80.5 24.75L80.8017 25.1487L80.5 24.75ZM79 15.75V16.25C79.2761 16.25 79.5 16.0261 79.5 15.75H79ZM71 15.75H70.5C70.5 16.0261 70.7239 16.25 71 16.25V15.75ZM110 2.75H110.5C110.5 2.47386 110.276 2.25 110 2.25V2.75ZM110 26.75V27.25C110.276 27.25 110.5 27.0261 110.5 26.75H110ZM105 26.75H104.5C104.5 27.0261 104.724 27.25 105 27.25V26.75ZM117 7.75L117.491 7.65558C117.446 7.42016 117.24 7.25 117 7.25V7.75ZM112 7.75V7.25C111.834 7.25 111.679 7.3323 111.586 7.46969C111.493 7.60707 111.474 7.78165 111.536 7.9357L112 7.75ZM126 7.75V7.25C125.777 7.25 125.581 7.39787 125.519 7.6124L126 7.75ZM130 7.75L130.483 7.87822C130.523 7.72818 130.491 7.56816 130.396 7.44513C130.302 7.3221 130.155 7.25 130 7.25V7.75ZM119 32.75V33.25C119.018 33.25 119.037 33.249 119.055 33.2469L119 32.75ZM114.5 32.75H114C114 33.0261 114.224 33.25 114.5 33.25V32.75ZM114.5 29.25V28.75C114.224 28.75 114 28.9739 114 29.25H114.5ZM119 25.25L119.496 25.188C119.491 25.1456 119.48 25.104 119.464 25.0643L119 25.25ZM2 0.75V14.25H3V0.75H2ZM21.2284 9.80522L2.7284 0.305216L2.2716 1.19478L20.7716 10.6948L21.2284 9.80522ZM2.267 22.6727L21.267 10.6727L20.733 9.82726L1.733 21.8273L2.267 22.6727ZM6.1 15.95L1.6 21.95L2.4 22.55L6.9 16.55L6.1 15.95ZM2.27639 14.6972L6.27639 16.6972L6.72361 15.8028L2.72361 13.8028L2.27639 14.6972ZM21.7443 14.3204L0.744258 26.8204L1.25574 27.6796L22.2557 15.1796L21.7443 14.3204ZM22.5 29.25V14.75H21.5V29.25H22.5ZM1.24807 41.6841L22.2481 29.6841L21.7519 28.8159L0.751931 40.8159L1.24807 41.6841ZM0.5 27.25V41.25H1.5V27.25H0.5ZM35.4991 15.7794C35.6914 12.5115 36.9616 10.6191 38.4427 9.5494C39.9449 8.46453 41.7228 8.18427 42.9688 8.26214L43.0312 7.26409C41.6105 7.1753 39.5884 7.48848 37.8573 8.73871C36.105 10.0042 34.7086 12.1885 34.5009 15.7206L35.4991 15.7794ZM35.5 33.7499V15.75H34.5V33.7499H35.5ZM38.5019 33.263L35.0019 33.2499L34.9981 34.2499L38.4981 34.263L38.5019 33.263ZM38 23.763V33.763H39V23.763H38ZM44 26.263C40.1797 26.263 39.1099 24.3811 38.9932 23.6808L38.0068 23.8452C38.2234 25.145 39.8203 27.263 44 27.263V26.263ZM50.5211 21.6064C50.1375 22.8852 49.4377 24.0447 48.3831 24.884C47.3326 25.72 45.8992 26.263 44 26.263V27.263C46.1008 27.263 47.76 26.6579 49.0057 25.6665C50.2473 24.6784 51.0476 23.3315 51.4789 21.8938L50.5211 21.6064ZM50.5097 12.8482C51.0608 15.6037 51.301 19.0069 50.5211 21.6064L51.4789 21.8938C52.3289 19.0604 52.0528 15.4647 51.4903 12.652L50.5097 12.8482ZM43 8.26312C45.5339 8.26312 47.2834 8.8002 48.4539 9.62182C49.6154 10.4371 50.253 11.5645 50.5097 12.8482L51.4903 12.652C51.1902 11.1516 50.4278 9.78554 49.0284 8.80332C47.6382 7.82747 45.6661 7.26312 43 7.26312V8.26312ZM47 17.2501C47 18.6746 46.5793 19.944 45.9241 20.8451C45.2684 21.7466 44.4052 22.2501 43.5 22.2501V23.2501C44.8039 23.2501 45.9407 22.5223 46.7328 21.4332C47.5252 20.3436 48 18.863 48 17.2501H47ZM43.5 12.2501C44.4052 12.2501 45.2684 12.7536 45.9241 13.6551C46.5793 14.5561 47 15.8255 47 17.2501H48C48 15.6371 47.5252 14.1565 46.7328 13.0669C45.9407 11.9778 44.8039 11.2501 43.5 11.2501V12.2501ZM40 17.2501C40 15.8255 40.4207 14.5561 41.0759 13.6551C41.7316 12.7536 42.5948 12.2501 43.5 12.2501V11.2501C42.1961 11.2501 41.0593 11.9778 40.2672 13.0669C39.4748 14.1565 39 15.6371 39 17.2501H40ZM43.5 22.2501C42.5948 22.2501 41.7316 21.7466 41.0759 20.8451C40.4207 19.944 40 18.6746 40 17.2501H39C39 18.863 39.4748 20.3436 40.2672 21.4332C41.0593 22.5223 42.1961 23.2501 43.5 23.2501V22.2501ZM94.0312 7.26409C92.6105 7.1753 90.5884 7.48848 88.8573 8.73871C87.105 10.0042 85.7086 12.1885 85.5009 15.7206L86.4991 15.7794C86.6914 12.5115 87.9616 10.6191 89.4427 9.5494C90.9449 8.46453 92.7228 8.18427 93.9688 8.26214L94.0312 7.26409ZM102.49 12.652C102.19 11.1516 101.428 9.78554 100.028 8.80332C98.6382 7.82747 96.6661 7.26312 94 7.26312V8.26312C96.5339 8.26312 98.2834 8.8002 99.4539 9.62182C100.615 10.4371 101.253 11.5645 101.51 12.8482L102.49 12.652ZM102.479 21.8938C103.329 19.0604 103.053 15.4647 102.49 12.652L101.51 12.8482C102.061 15.6037 102.301 19.0069 101.521 21.6064L102.479 21.8938ZM95 27.263C97.1008 27.263 98.76 26.6579 100.006 25.6665C101.247 24.6784 102.048 23.3315 102.479 21.8938L101.521 21.6064C101.137 22.8852 100.438 24.0447 99.3831 24.884C98.3326 25.72 96.8992 26.263 95 26.263V27.263ZM89.0068 23.8452C89.2234 25.145 90.8203 27.263 95 27.263V26.263C91.1797 26.263 90.1099 24.3811 89.9932 23.6808L89.0068 23.8452ZM90 33.763V23.763H89V33.763H90ZM85.9981 34.2499L89.4981 34.263L89.5019 33.263L86.0019 33.2499L85.9981 34.2499ZM85.5 15.75V33.7499H86.5V15.75H85.5ZM94.5 23.2501C95.8039 23.2501 96.9407 22.5223 97.7328 21.4332C98.5252 20.3436 99 18.863 99 17.2501H98C98 18.6746 97.5793 19.944 96.9241 20.8451C96.2684 21.7466 95.4052 22.2501 94.5 22.2501V23.2501ZM90 17.2501C90 18.863 90.4748 20.3436 91.2672 21.4332C92.0593 22.5223 93.1961 23.2501 94.5 23.2501V22.2501C93.5948 22.2501 92.7316 21.7466 92.0759 20.8451C91.4207 19.944 91 18.6746 91 17.2501H90ZM94.5 11.2501C93.1961 11.2501 92.0593 11.9778 91.2672 13.0669C90.4748 14.1565 90 15.6371 90 17.2501H91C91 15.8255 91.4207 14.5561 92.0759 13.6551C92.7316 12.7536 93.5948 12.2501 94.5 12.2501V11.2501ZM99 17.2501C99 15.6371 98.5252 14.1565 97.7328 13.0669C96.9407 11.9778 95.8039 11.2501 94.5 11.2501V12.2501C95.4052 12.2501 96.2684 12.7536 96.9241 13.6551C97.5793 14.5561 98 15.8255 98 17.2501H99ZM65.4561 11.9817L65.4558 7.9817L64.4558 7.98175L64.4561 11.9817L65.4561 11.9817ZM59.5447 13.6177C59.5482 13.3052 59.7285 13.0489 60.1924 12.8303C60.6658 12.6072 61.3322 12.4819 62.0498 12.4247C62.7575 12.3684 63.4704 12.3814 64.0103 12.4093C64.2792 12.4232 64.5029 12.4406 64.6587 12.4545C64.7365 12.4615 64.7973 12.4675 64.8381 12.4718C64.8585 12.4739 64.8739 12.4756 64.884 12.4767C64.889 12.4773 64.8927 12.4777 64.895 12.478C64.8962 12.4781 64.897 12.4782 64.8974 12.4782C64.8977 12.4783 64.8978 12.4783 64.8979 12.4783C64.8979 12.4783 64.8979 12.4783 64.8979 12.4783C64.8978 12.4783 64.8977 12.4783 64.9561 11.9817C65.0144 11.4851 65.0143 11.4851 65.0141 11.4851C65.014 11.4851 65.0139 11.485 65.0137 11.485C65.0134 11.485 65.013 11.4849 65.0125 11.4849C65.0116 11.4848 65.0102 11.4846 65.0086 11.4844C65.0052 11.484 65.0005 11.4835 64.9944 11.4828C64.9822 11.4815 64.9645 11.4796 64.9418 11.4772C64.8964 11.4725 64.8307 11.4659 64.7476 11.4585C64.5814 11.4437 64.3451 11.4253 64.0619 11.4106C63.4974 11.3815 62.7373 11.3668 61.9705 11.4279C61.2135 11.4882 60.4037 11.6253 59.7663 11.9256C59.1194 12.2304 58.5543 12.7582 58.5447 13.6065L59.5447 13.6177ZM59.0447 26.6121C59.5446 26.6035 59.5446 26.6035 59.5446 26.6034C59.5446 26.6034 59.5446 26.6034 59.5446 26.6033C59.5446 26.6031 59.5446 26.6029 59.5446 26.6026C59.5446 26.602 59.5446 26.6011 59.5446 26.5999C59.5445 26.5975 59.5445 26.5938 59.5444 26.5889C59.5442 26.579 59.544 26.5643 59.5437 26.5446C59.5431 26.5054 59.5422 26.4467 59.541 26.3691C59.5388 26.2139 59.5357 25.9833 59.5323 25.6819C59.5254 25.079 59.5171 24.1929 59.5116 23.0609C59.5006 20.797 59.5006 17.5497 59.5447 13.6177L58.5447 13.6065C58.5006 17.5446 58.5006 20.7973 58.5116 23.0658C58.5171 24.2001 58.5254 25.0884 58.5323 25.6933C58.5358 25.9957 58.5389 26.2274 58.5411 26.3835C58.5423 26.4616 58.5432 26.5207 58.5438 26.5605C58.5441 26.5803 58.5444 26.5953 58.5445 26.6054C58.5446 26.6104 58.5447 26.6142 58.5447 26.6168C58.5447 26.618 58.5448 26.619 58.5448 26.6197C58.5448 26.62 58.5448 26.6202 58.5448 26.6204C58.5448 26.6205 58.5448 26.6206 58.5448 26.6206C58.5448 26.6207 58.5448 26.6207 59.0447 26.6121ZM54.0447 27.1121H59.0447V26.1121H54.0447V27.1121ZM53.5159 18.007L53.5447 26.6138L54.5447 26.6104L54.5159 18.0037L53.5159 18.007ZM54.6022 10.8824C53.9235 12.1866 53.6621 13.9983 53.561 15.4293C53.5097 16.1552 53.4985 16.8031 53.5001 17.2697C53.501 17.5032 53.505 17.6919 53.5088 17.8229C53.5108 17.8885 53.5127 17.9396 53.5141 17.9747C53.5148 17.9923 53.5154 18.0059 53.5158 18.0153C53.516 18.0199 53.5162 18.0236 53.5163 18.0262C53.5164 18.0274 53.5164 18.0285 53.5165 18.0292C53.5165 18.0296 53.5165 18.0299 53.5165 18.0301C53.5165 18.0302 53.5165 18.0304 53.5165 18.0304C53.5165 18.0305 53.5165 18.0306 54.0159 18.0054C54.5153 17.9801 54.5153 17.9802 54.5153 17.9802C54.5153 17.9802 54.5153 17.9802 54.5153 17.9802C54.5153 17.9802 54.5153 17.9801 54.5153 17.9799C54.5152 17.9796 54.5152 17.9789 54.5152 17.9781C54.5151 17.9763 54.5149 17.9735 54.5148 17.9696C54.5144 17.9619 54.5139 17.9501 54.5133 17.9343C54.512 17.9026 54.5102 17.8552 54.5084 17.7935C54.5048 17.6702 54.5009 17.4902 54.5001 17.2662C54.4986 16.8177 54.5093 16.1953 54.5585 15.4998C54.6582 14.0883 54.9117 12.454 55.4893 11.3441L54.6022 10.8824ZM64.9558 7.98172C65.0539 7.49143 65.0537 7.49139 65.0535 7.49135C65.0534 7.49133 65.0531 7.49128 65.0529 7.49124C65.0525 7.49115 65.0519 7.49104 65.0513 7.49091C65.0499 7.49064 65.0481 7.49029 65.0459 7.48986C65.0414 7.48899 65.0351 7.48778 65.0271 7.48626C65.0111 7.48323 64.9881 7.47897 64.9584 7.4737C64.8991 7.46318 64.8134 7.44866 64.7042 7.43203C64.486 7.39878 64.1737 7.357 63.7922 7.32186C63.0309 7.25172 61.9856 7.20725 60.858 7.31294C58.6285 7.5219 55.9275 8.33603 54.6022 10.8824L55.4893 11.3441C56.5744 9.25919 58.8283 8.50755 60.9513 8.30857C61.9999 8.21029 62.9803 8.2513 63.7005 8.31764C64.0598 8.35074 64.3522 8.38994 64.5536 8.42062C64.6542 8.43595 64.7319 8.44913 64.7837 8.45832C64.8095 8.46291 64.8289 8.4665 64.8414 8.46886C64.8476 8.47004 64.8521 8.47091 64.8549 8.47145C64.8563 8.47172 64.8572 8.4719 64.8577 8.472C64.8579 8.47204 64.8581 8.47207 64.8581 8.47207C64.8581 8.47207 64.858 8.47206 64.858 8.47206C64.8579 8.47204 64.8578 8.47202 64.9558 7.98172ZM83.5 18.75L83.5 13.75L82.5 13.75L82.5 18.75L83.5 18.75ZM71 19.25H83V18.25H71V19.25ZM72.3536 21.3964C72.0267 21.0695 71.7996 20.4466 71.6609 19.8152C71.5948 19.5145 71.5541 19.238 71.5299 19.0365C71.5179 18.936 71.51 18.8551 71.5053 18.8001C71.5029 18.7726 71.5013 18.7516 71.5003 18.738C71.4998 18.7313 71.4995 18.7263 71.4993 18.7233C71.4992 18.7218 71.4991 18.7208 71.4991 18.7203C71.4991 18.72 71.4991 18.7199 71.4991 18.7199C71.4991 18.7199 71.4991 18.7199 71.4991 18.72C71.4991 18.72 71.4991 18.7201 71.4991 18.7201C71.4991 18.7202 71.4991 18.7203 71 18.75C70.5009 18.7797 70.5009 18.7799 70.5009 18.78C70.5009 18.78 70.5009 18.7801 70.5009 18.7802C70.5009 18.7804 70.5009 18.7806 70.501 18.7809C70.501 18.7814 70.501 18.782 70.5011 18.7828C70.5012 18.7844 70.5013 18.7864 70.5015 18.789C70.5018 18.7941 70.5023 18.8012 70.5029 18.8102C70.5042 18.8281 70.5062 18.8538 70.509 18.8861C70.5146 18.9508 70.5235 19.0429 70.537 19.1554C70.5639 19.38 70.6094 19.6897 70.6842 20.0299C70.8271 20.6802 71.1001 21.5572 71.6464 22.1036L72.3536 21.3964ZM74.0988 22.2599C73.6872 22.1769 73.3879 22.0911 73.1265 21.9659C72.8703 21.8432 72.6296 21.6725 72.3536 21.3964L71.6464 22.1036C71.9879 22.445 72.3191 22.688 72.6946 22.8678C73.0648 23.0451 73.4568 23.1506 73.9012 23.2401L74.0988 22.2599ZM77.6839 21.8626C77.3419 22.1416 76.7566 22.3135 76.0507 22.3712C75.3613 22.4276 74.6384 22.3686 74.0988 22.2599L73.9012 23.2401C74.526 23.366 75.3429 23.4324 76.1323 23.3679C76.9052 23.3046 77.7377 23.1092 78.3161 22.6374L77.6839 21.8626ZM79 20.75C78.5211 20.6062 78.5212 20.6061 78.5212 20.606C78.5212 20.6059 78.5212 20.6058 78.5213 20.6057C78.5213 20.6056 78.5213 20.6054 78.5214 20.6053C78.5215 20.6051 78.5215 20.6049 78.5216 20.6048C78.5216 20.6045 78.5217 20.6044 78.5216 20.6046C78.5215 20.6049 78.5212 20.606 78.5206 20.6079C78.5193 20.6117 78.5171 20.6187 78.5137 20.6284C78.507 20.648 78.4961 20.6789 78.4805 20.7186C78.4493 20.7985 78.4002 20.9127 78.3309 21.0436C78.1903 21.3096 77.9783 21.6225 77.6839 21.8626L78.3161 22.6374C78.7496 22.2837 79.0376 21.8466 79.215 21.511C79.3048 21.3412 79.3692 21.1917 79.4117 21.0831C79.433 21.0286 79.449 20.984 79.46 20.9517C79.4656 20.9356 79.4698 20.9225 79.473 20.9127C79.4745 20.9079 79.4758 20.9038 79.4768 20.9006C79.4773 20.8991 79.4777 20.8977 79.478 20.8965C79.4782 20.896 79.4784 20.8955 79.4785 20.895C79.4786 20.8948 79.4786 20.8946 79.4787 20.8944C79.4787 20.8943 79.4788 20.8941 79.4788 20.8941C79.4788 20.8939 79.4789 20.8938 79 20.75ZM83 20.25H79V21.25H83V20.25ZM80.8017 25.1487C81.9045 24.3143 82.574 23.2367 82.9665 22.382C83.1636 21.9529 83.2934 21.5743 83.3745 21.3009C83.4151 21.1641 83.4436 21.0531 83.4623 20.9747C83.4717 20.9355 83.4786 20.9044 83.4833 20.8822C83.4856 20.8711 83.4875 20.8623 83.4888 20.8558C83.4894 20.8525 83.49 20.8498 83.4904 20.8477C83.4906 20.8467 83.4907 20.8458 83.4909 20.8451C83.491 20.8447 83.491 20.8444 83.4911 20.8441C83.4911 20.8439 83.4911 20.8437 83.4911 20.8437C83.4912 20.8435 83.4912 20.8433 83 20.75C82.5088 20.6567 82.5088 20.6565 82.5088 20.6564C82.5089 20.6564 82.5089 20.6562 82.5089 20.6561C82.5089 20.656 82.5089 20.6559 82.5089 20.6558C82.509 20.6557 82.509 20.6557 82.5089 20.6558C82.5089 20.6561 82.5087 20.657 82.5084 20.6585C82.5078 20.6614 82.5068 20.6665 82.5052 20.6738C82.5021 20.6885 82.497 20.7118 82.4895 20.7429C82.4747 20.8052 82.4508 20.8985 82.4158 21.0165C82.3457 21.2529 82.2316 21.586 82.0577 21.9646C81.7083 22.7255 81.1278 23.6479 80.1983 24.3513L80.8017 25.1487ZM74.6655 26.75C74.8879 26.75 75.8941 26.7396 77.097 26.5409C78.2856 26.3445 79.7382 25.9534 80.8017 25.1487L80.1983 24.3513C79.3321 25.0067 78.076 25.3656 76.934 25.5542C75.8063 25.7405 74.8601 25.75 74.6655 25.75V26.75ZM65.5 17.25C65.5 19.9825 66.3916 22.3616 68.0023 24.0614C69.6156 25.7641 71.9176 26.75 74.6655 26.75V25.75C72.1668 25.75 70.1359 24.8593 68.7282 23.3736C67.3178 21.8851 66.5 19.7642 66.5 17.25H65.5ZM74.6655 7.25C69.0839 7.25 65.5 11.7899 65.5 17.25H66.5C66.5 12.2167 69.7538 8.25 74.6655 8.25V7.25ZM83.4881 13.6415C82.9613 11.2709 81.7626 9.65367 80.1633 8.64017C78.5782 7.6356 76.6415 7.25 74.6655 7.25V8.25C76.524 8.25 78.2546 8.6144 79.628 9.48483C80.9874 10.3463 82.0387 11.7291 82.5119 13.8585L83.4881 13.6415ZM75 10.25C72.5147 10.25 70.5 12.2647 70.5 14.75H71.5C71.5 12.817 73.067 11.25 75 11.25V10.25ZM79.5 14.75C79.5 12.2647 77.4853 10.25 75 10.25V11.25C76.933 11.25 78.5 12.817 78.5 14.75H79.5ZM79.5 15.75V14.75H78.5V15.75H79.5ZM71 16.25H79V15.25H71V16.25ZM70.5 14.75V15.75H71.5V14.75H70.5ZM110 2.25C106.962 2.25 104.5 4.71243 104.5 7.75H105.5C105.5 5.26472 107.515 3.25 110 3.25V2.25ZM110.5 26.75V2.75H109.5V26.75H110.5ZM105 27.25H110V26.25H105V27.25ZM104.5 7.75V26.75H105.5V7.75H104.5ZM117 7.25H112V8.25H117V7.25ZM121 20.25C121.091 20.25 121.111 20.2967 121.051 20.2407C120.998 20.1902 120.922 20.0942 120.827 19.9354C120.639 19.6202 120.431 19.147 120.212 18.5472C119.776 17.3538 119.328 15.7493 118.923 14.1287C118.518 12.5117 118.16 10.8931 117.903 9.67777C117.775 9.07036 117.672 8.56429 117.601 8.21028C117.565 8.03328 117.538 7.89432 117.519 7.79975C117.51 7.75247 117.503 7.71628 117.498 7.69199C117.496 7.67984 117.494 7.67067 117.493 7.66457C117.492 7.66151 117.492 7.65923 117.491 7.65773C117.491 7.65698 117.491 7.65642 117.491 7.65606C117.491 7.65588 117.491 7.65576 117.491 7.65567C117.491 7.6556 117.491 7.65558 117 7.75C116.509 7.84442 116.509 7.8445 116.509 7.84463C116.509 7.84473 116.509 7.84491 116.509 7.84512C116.509 7.84556 116.509 7.84618 116.509 7.84701C116.51 7.84865 116.51 7.85108 116.511 7.85428C116.512 7.86067 116.514 7.87015 116.516 7.8826C116.521 7.9075 116.528 7.94431 116.538 7.99224C116.557 8.0881 116.584 8.22844 116.62 8.40691C116.692 8.76383 116.796 9.27339 116.925 9.88473C117.183 11.1069 117.544 12.7383 117.952 14.3713C118.36 16.0007 118.818 17.6462 119.273 18.8903C119.499 19.5092 119.732 20.0516 119.968 20.4474C120.085 20.6441 120.216 20.8274 120.364 20.9673C120.507 21.1017 120.722 21.25 121 21.25V20.25ZM126 7.75C125.519 7.6124 125.519 7.61243 125.519 7.61251C125.519 7.6126 125.519 7.61272 125.519 7.61291C125.519 7.61327 125.519 7.61384 125.519 7.6146C125.518 7.61611 125.518 7.61841 125.517 7.62148C125.515 7.62761 125.512 7.63681 125.509 7.64899C125.502 7.67334 125.491 7.70959 125.478 7.75694C125.45 7.85164 125.41 7.99074 125.358 8.16788C125.254 8.52219 125.104 9.02861 124.92 9.63641C124.552 10.8525 124.048 12.4724 123.505 14.091C122.962 15.7125 122.382 17.3211 121.862 18.5198C121.601 19.1217 121.363 19.6019 121.159 19.9247C121.056 20.0878 120.975 20.1904 120.918 20.2463C120.844 20.3179 120.877 20.25 121 20.25V21.25C121.283 21.25 121.495 21.0805 121.616 20.9617C121.754 20.8272 121.884 20.6505 122.005 20.4581C122.25 20.07 122.512 19.5345 122.779 18.9177C123.317 17.6789 123.907 16.0375 124.454 14.409C125.001 12.7776 125.507 11.1475 125.877 9.92609C126.062 9.31514 126.213 8.80594 126.317 8.44931C126.37 8.27098 126.41 8.13078 126.438 8.03505C126.452 7.98719 126.463 7.95044 126.47 7.9256C126.473 7.91318 126.476 7.90374 126.478 7.89737C126.479 7.89419 126.479 7.89177 126.48 7.89014C126.48 7.88932 126.48 7.8887 126.48 7.88828C126.481 7.88807 126.481 7.8879 126.481 7.88779C126.481 7.88767 126.481 7.8876 126 7.75ZM130 7.25H126V8.25H130V7.25ZM119.055 33.2469C119.677 33.1778 120.255 32.7778 120.775 32.2453C121.305 31.7022 121.837 30.9586 122.362 30.08C123.414 28.3204 124.485 25.9438 125.503 23.3449C127.541 18.1422 129.397 11.9726 130.483 7.87822L129.517 7.62178C128.436 11.694 126.592 17.8245 124.572 22.9801C123.561 25.5604 122.513 27.8775 121.504 29.5669C120.998 30.4127 120.513 31.0824 120.06 31.5465C119.596 32.0211 119.223 32.2222 118.945 32.2531L119.055 33.2469ZM114.5 33.25H119V32.25H114.5V33.25ZM114 29.25V32.75H115V29.25H114ZM117.5 28.75H114.5V29.75H117.5V28.75ZM118.504 25.312C118.697 26.8542 118.484 27.7319 118.216 28.2026C117.953 28.6636 117.635 28.75 117.5 28.75V29.75C118.032 29.75 118.664 29.4364 119.084 28.6974C119.5 27.9681 119.703 26.8458 119.496 25.188L118.504 25.312ZM111.536 7.9357L118.536 25.4357L119.464 25.0643L112.464 7.5643L111.536 7.9357Z" fill="#EAEAEA"/>
</svg>
